<svg xmlns="http://www.w3.org/2000/svg" width="256" height="256" fill="none" viewBox="0 0 256 256">
  <path fill="#fff" fill-rule="evenodd" d="M2 4a2 2 0 1 0 0-4 2 2 0 0 0 0 4Zm0 168a2 2 0 1 0 0-4 2 2 0 0 0 0 4ZM172 2a2 2 0 1 1-4 0 2 2 0 0 1 4 0Zm-2 170a2 2 0 1 0 .001-3.999A2 2 0 0 0 170 172ZM4 86a2 2 0 1 1-4 0 2 2 0 0 1 4 0ZM2 256a2 2 0 1 0 0-4 2 2 0 0 0 0 4ZM172 86a2 2 0 1 1-4 0 2 2 0 0 1 4 0Zm-2 170a2 2 0 1 0 .001-3.999A2 2 0 0 0 170 256ZM88 2a2 2 0 1 1-4 0 2 2 0 0 1 4 0Zm-2 170a2 2 0 1 0 0-4 2 2 0 0 0 0 4ZM256 2a2 2 0 1 1-4 0 2 2 0 0 1 4 0Zm-2 170a2 2 0 1 0 .001-3.999A2 2 0 0 0 254 172ZM88 86a2 2 0 1 1-4 0 2 2 0 0 1 4 0Zm-2 170a2 2 0 1 0 0-4 2 2 0 0 0 0 4ZM256 86a2 2 0 1 1-4 0 2 2 0 0 1 4 0Zm-2 170a2 2 0 1 0 .001-3.999A2 2 0 0 0 254 256Z" clip-rule="evenodd"/>
</svg>
